# xmcd
#
# Track frame offsets:
#	150
#	16982
#	36398
#	52985
#	69693
#	89631
#	105553
#	121518
#	141481
#	158924
#	174973
#
# Disc length: 2371 seconds
#
# Revision: 1
# Processed by: cddbd v1.5.2PL0 Copyright (c) Steve Scherf et al.
# Submitted via: EasyCDDAExtractor 10.2.0.1
#
DISCID=9009410b
DTITLE=Alberto Plaza - Remedio pa´l corazon
DYEAR=2007
DGENRE=Latin
TTITLE0=Remedio pa´l corazon
TTITLE1=Venirte conmigo
TTITLE2=De que voy a morirme
TTITLE3=Apredi de ti
TTITLE4=Lastima
TTITLE5=Ahora dime
TTITLE6=Y si un dia tu regresas
TTITLE7=Compañera
TTITLE8=La mujer de mi vida
TTITLE9=Dejala partir
TTITLE10=Remedio pa´l corazon (Coda)
EXTD=
EXTT0=
EXTT1=
EXTT2=
EXTT3=
EXTT4=
EXTT5=
EXTT6=
EXTT7=
EXTT8=
EXTT9=
EXTT10=
PLAYORDER=
